<?xml version="1.0" encoding="UTF-8" standalone="no"?>
<!DOCTYPE svg PUBLIC "-//W3C//DTD SVG 1.1//EN" "http://www.w3.org/Graphics/SVG/1.1/DTD/svg11.dtd">
<svg width="100%" height="100%" viewBox="0 0 175 28" version="1.1" xmlns="http://www.w3.org/2000/svg" xmlns:xlink="http://www.w3.org/1999/xlink" xml:space="preserve" xmlns:serif="http://www.serif.com/" style="fill-rule:evenodd;clip-rule:evenodd;stroke-linejoin:round;stroke-miterlimit:2;">
    <g transform="matrix(2.40482,0,0,2.40482,-130.637,79.2623)">
        <text x="76.554px" y="-24.608px" style="font-family:'Lato-Regular', 'Lato', sans-serif;font-size:7.485px;fill:white;">R<tspan x="81px " y="-24.608px ">e</tspan>tr<tspan x="90.181px 94.312px " y="-24.608px -24.608px ">oS</tspan>pectacle</text>
    </g>
    <g id="Glasses_-example-" serif:id="Glasses_(example)" transform="matrix(0.0999653,0,0,0.0999653,23.7452,14)">
        <g transform="matrix(1,0,0,1,-256,-256)">
            <path d="M465.4,247C463.2,225 453,204 436.5,188.6C419.4,172.7 397.2,163.9 373.8,163.9C332.3,163.9 296.5,191.3 285.3,230.9C278.3,223.9 266.8,219.2 256,219.2C245.2,219.2 233.7,223.9 226.7,230.9C215.5,191.3 179.7,163.9 138.2,163.9C114.9,163.9 92.6,172.6 75.5,188.5C59,204 48.8,225 46.6,247L32,247L32,265L46.6,265C48.8,287 59,308 75.5,323.4C92.6,339.3 114.8,348.1 138.2,348.1C189,348.1 230.3,306.9 230.3,256.1L230.3,256C230.3,246.1 241.8,234.4 256,234.4C270.2,234.4 281.7,246.1 281.7,256L281.7,256.1C281.7,306.9 323,348.1 373.8,348.1C397.1,348.1 419.4,339.4 436.5,323.4C453,308 463.2,286.9 465.4,264.9L480,264.9L480,246.9L465.4,246.9L465.4,247ZM373.8,333C331.3,333 296.8,298.4 296.8,256C296.8,213.5 331.4,179 373.8,179C416.3,179 450.8,213.6 450.8,256C450.8,298.5 416.3,333 373.8,333ZM138.2,333C95.7,333 61.2,298.4 61.2,256C61.2,213.5 95.8,179 138.2,179C180.7,179 215.2,213.6 215.2,256C215.2,298.5 180.7,333 138.2,333Z" style="fill:white;fill-rule:nonzero;"/>
        </g>
    </g>
</svg>
